<svg width="89" height="48" viewBox="0 0 89 48" fill="none" xmlns="http://www.w3.org/2000/svg">
<path d="M13.3194 21.9526H9.83947V47.3073H7.94941C6.57633 47.3073 5.28663 46.6624 5.28663 44.3443V21.9581H0V20.1515C0 18.9507 0.728233 17.6999 2.23473 17.6999H15.5986V19.4177C15.5986 21.1799 14.8259 21.9526 13.3194 21.9526Z" fill="black"/>
<path d="M25.7438 47.8243C20.5462 47.8243 16.8049 42.0651 16.8049 32.9539C16.8049 22.8142 20.3738 17.2274 25.9996 17.2274C30.7247 17.2274 34.894 22.1249 34.894 32.398C34.894 42.6711 31.3696 47.8243 25.7383 47.8243H25.7438ZM25.7883 21.3967C23.1255 21.3967 21.4078 25.2658 21.4078 32.4814C21.4078 40.2585 23.17 43.655 25.9217 43.655C28.6735 43.655 30.3467 40.2195 30.3467 32.8705C30.3467 25.5215 28.7124 21.3967 25.7939 21.3967H25.7883Z" fill="black"/>
<path d="M45.5117 47.5241H44.0052C40.3085 47.5241 38.5463 45.5896 38.5463 41.4648V18.645C39.6636 18.0891 42.1152 17.4387 43.4882 17.4387H45.4672C51.0096 17.4387 54.8787 21.7358 54.8787 32.0089C54.8787 42.2819 51.3987 47.5241 45.5117 47.5241ZM50.2814 32.2257C50.2814 24.4486 48.7749 21.6524 45.3394 21.6524C44.5667 21.6524 43.7495 21.7358 43.1047 21.9081V40.6031C43.1047 42.5821 43.6606 43.3548 45.2949 43.3548H45.6841C48.3468 43.3548 50.2814 40.1751 50.2814 32.5703V32.2257Z" fill="black"/>
<path d="M71.8115 47.3073C70.0048 47.3073 69.1876 46.3623 69.0598 44.7279C68.8874 42.8379 68.5873 41.159 68.3705 39.4858H61.4495C61.1493 41.676 60.8491 44.2109 60.5489 47.3073H58.4865C57.1968 47.3073 56.5964 46.4457 56.5964 44.7724C56.5964 40.5587 60.5489 22.4696 63.0004 17.3108H64.8905C66.4804 17.3108 67.7256 18.9841 68.2871 20.4461C70.0938 25.1713 72.9733 37.6791 73.8739 47.3018H71.8115V47.3073ZM64.935 22.7253C63.8176 26.5944 62.7836 31.3196 62.0999 35.789H67.7701C67.1252 31.1917 66.0079 26.4221 64.935 22.7253Z" fill="black"/>
<path d="M83.4576 34.7161V47.3073H81.612C79.8943 47.3073 78.9048 46.4067 78.9048 44.4277V34.7161C76.8869 30.5468 74.2185 22.8976 73.1901 17.6999H75.297C76.5033 17.6999 77.4873 18.3003 77.9598 19.9791C78.8214 23.031 79.722 26.1663 81.4397 30.3801C83.2019 26.1274 84.7084 21.6135 85.3477 17.7444L87.3267 17.6999C88.3996 17.6999 89 18.3448 89 19.4621C89 21.6524 85.4311 31.1528 83.4576 34.7161Z" fill="black"/>
<path d="M6.16497 0.505873C7.17115 1.87339 8.53867 2.69613 10.0618 3.2298C9.89508 3.42992 9.75054 3.74123 9.68939 3.99694C9.64492 4.16927 9.61713 4.23598 9.53374 4.23598C9.48927 4.23598 9.417 4.20819 9.31694 4.1526C8.62206 3.84129 7.97721 3.45771 7.39907 3.01855V3.72455C7.39907 3.81349 7.38796 3.82461 7.29901 3.82461C7.24342 3.82461 7.02662 3.80793 6.31506 3.80793H5.04761C4.34717 3.80793 4.12481 3.82461 4.06922 3.82461C3.96916 3.82461 3.95804 3.81349 3.95804 3.72455V2.99632C3.39102 3.44104 2.77952 3.83573 2.12356 4.18595C2.0235 4.24154 1.95679 4.26933 1.91232 4.26933C1.85117 4.26933 1.81225 4.20262 1.74554 4.05253C1.64548 3.80793 1.50651 3.58001 1.32306 3.42436C2.98521 2.7128 4.09145 1.74554 4.84748 0.650409C5.00313 0.422489 5.11987 0.222361 5.18658 0C5.54236 0.0555903 5.88702 0.11674 6.16497 0.200125C6.27615 0.216802 6.33174 0.255717 6.33174 0.327985C6.33174 0.383575 6.30395 0.428047 6.2428 0.46696L6.17053 0.52255L6.16497 0.505873ZM4.11925 5.42561C3.23536 5.42561 2.92962 5.44229 2.87959 5.44229C2.79064 5.44229 2.77952 5.43117 2.77952 5.33111V4.61955C2.77952 4.53061 2.79064 4.51949 2.87959 4.51949C2.93518 4.51949 3.23536 4.53616 4.11925 4.53616H7.40463C7.56029 4.53616 7.66035 4.52505 7.72706 4.49725C7.78265 4.48058 7.82712 4.45834 7.86603 4.45834C7.95498 4.45834 8.03836 4.48614 8.2774 4.71406C8.57759 5.00868 8.59982 5.08095 8.59982 5.13654C8.59982 5.22548 8.57203 5.2644 8.48308 5.33666C8.38302 5.42005 8.31075 5.53679 8.1829 5.77583C7.8438 6.42624 7.10445 7.53804 6.40401 8.43304C6.3651 8.47752 6.3373 8.50531 6.29283 8.50531C6.22056 8.50531 6.09826 8.44972 5.83699 8.33854C5.49233 8.19957 5.37003 8.15509 5.37003 8.09394C5.37003 8.07727 5.38671 8.04947 5.42562 8.01055C6.13162 7.26009 6.80426 6.23723 7.19895 5.41449H4.13037L4.11925 5.42561ZM4.06366 2.91293C4.11925 2.91293 4.33605 2.92405 5.04205 2.92405H6.3095C6.93212 2.92405 7.1656 2.91293 7.2601 2.91293C6.63193 2.41817 6.08158 1.86227 5.63686 1.25078C5.18102 1.87895 4.6418 2.42929 4.04698 2.91293H4.06366Z" fill="black"/>
<path d="M14.1755 8.32186C14.0866 8.32186 14.0754 8.31073 14.0754 8.22179C14.0754 8.15508 14.0921 7.62142 14.0921 4.96976V3.20754C14.0921 1.43422 14.0754 0.878317 14.0754 0.822727C14.0754 0.722664 14.0866 0.711548 14.1755 0.711548C14.2422 0.711548 14.548 0.728224 15.4374 0.728224H18.5671C19.451 0.728224 19.7734 0.711548 19.829 0.711548C19.918 0.711548 19.9291 0.722664 19.9291 0.822727C19.9291 0.878317 19.9124 1.43422 19.9124 2.92959V4.95864C19.9124 7.57694 19.9291 8.11617 19.9291 8.17176C19.9291 8.2607 19.918 8.27182 19.829 8.27182H19.0174C18.9285 8.27182 18.9174 8.2607 18.9174 8.17176V7.72704H15.0927V8.22179C15.0927 8.31073 15.0816 8.32186 14.9927 8.32186H14.1811H14.1755ZM15.0872 3.71898H18.9118V1.63434H15.0872V3.71898ZM18.9118 6.82091V4.60842H15.0872V6.82091H18.9118Z" fill="black"/>
<path d="M29.3127 6.43179C29.3127 6.53185 29.2572 6.57632 29.1404 6.59856C29.0237 6.6208 28.7457 6.64303 28.49 6.64303C28.4066 6.64303 28.3733 6.58745 28.3733 6.4985C28.3733 6.17052 28.3733 5.71468 28.3844 5.3867C27.5728 5.80918 27.2781 6.16496 27.2781 6.59856C27.2781 6.98213 27.5894 7.22673 28.5456 7.22673C29.385 7.22673 30.1188 7.14335 30.8192 7.04328C30.9026 7.03217 30.936 7.05996 30.9471 7.14334C30.9916 7.35459 31.0305 7.67145 31.0305 7.89381C31.0416 8.00499 31.0027 8.06614 30.9304 8.06614C30.1466 8.1662 29.5518 8.18289 28.6679 8.18289C27.1725 8.18289 26.3776 7.73816 26.3776 6.67639C26.3776 5.79806 26.9279 5.15877 28.3066 4.44722C28.2788 3.98026 28.1676 3.79681 27.7562 3.81905C27.3282 3.83572 26.9168 4.11367 26.4943 4.47501C26.0996 4.85858 25.8717 5.12542 25.5826 5.47008C25.5382 5.52567 25.5104 5.55346 25.4715 5.55346C25.4437 5.55346 25.4103 5.52567 25.3714 5.48675C25.2435 5.3589 24.9711 5.07539 24.8488 4.88638C24.8211 4.84747 24.8099 4.81967 24.8099 4.803C24.8099 4.76408 24.8266 4.74184 24.8711 4.70293C25.5715 4.07476 26.2497 3.35209 26.7778 2.44041C26.3498 2.45708 25.855 2.4682 25.3158 2.4682C25.2324 2.4682 25.2046 2.42373 25.188 2.32367C25.1602 2.17913 25.1268 1.84003 25.099 1.56764C25.7939 1.60655 26.5054 1.59544 27.2003 1.55652C27.3004 1.31193 27.3838 1.08956 27.4727 0.772699C27.5061 0.617047 27.5339 0.461394 27.5339 0.216797C27.9341 0.277946 28.3399 0.383571 28.5734 0.472516C28.6457 0.500311 28.6846 0.56146 28.6846 0.628168C28.6846 0.67264 28.6679 0.72823 28.6234 0.767143C28.5678 0.811616 28.5122 0.895001 28.4678 0.983945C28.4122 1.1118 28.3677 1.22854 28.2565 1.4787C28.8124 1.41199 29.3683 1.32304 29.9187 1.19519C30.0187 1.17851 30.0465 1.20631 30.0632 1.28413C30.1077 1.46758 30.1466 1.67882 30.1522 1.9401C30.1633 2.02904 30.1244 2.06795 29.9965 2.08463C29.3127 2.18469 28.5289 2.28476 27.8618 2.35703C27.6506 2.69613 27.4505 3.03523 27.1781 3.36877L27.1892 3.38544C27.4838 3.19088 27.8563 3.10194 28.1009 3.10194C28.7013 3.10194 29.1237 3.37432 29.2127 4.08588C29.5685 3.91911 30.091 3.68563 30.5524 3.44659C30.7247 3.35765 31.0194 3.19088 31.2473 2.95184C31.5475 3.27426 31.7865 3.59113 31.8866 3.7579C31.9422 3.84128 31.9588 3.90243 31.9588 3.95802C31.9588 4.03029 31.9144 4.0692 31.8199 4.08588C31.6253 4.11367 31.4474 4.15815 31.264 4.22485C30.6691 4.4361 30.0743 4.63622 29.3016 4.95308V6.42067L29.3127 6.43179Z" fill="black"/>
<path d="M38.1349 4.54174C38.1349 4.58621 38.1238 4.62512 38.1182 4.65847C38.5629 5.55347 39.0855 6.12606 39.8081 6.63749C39.6636 6.79314 39.4857 7.04886 39.3801 7.30457C39.3245 7.43243 39.2912 7.48802 39.2411 7.48802C39.1911 7.48802 39.1411 7.44355 39.0466 7.34905C38.5462 6.84873 38.1682 6.37066 37.8514 5.74249C37.5679 6.56522 37.0564 7.34904 36.2726 8.07171C36.1892 8.14398 36.1336 8.1829 36.0892 8.1829C36.028 8.1829 35.9724 8.11618 35.8946 8.01056C35.7556 7.79376 35.5944 7.61588 35.3998 7.48802C36.4227 6.72088 36.9063 5.90925 37.1454 4.88639C37.1732 4.77521 37.1898 4.65848 37.2065 4.54174H36.7229C35.9446 4.54174 35.6834 4.55841 35.6278 4.55841C35.5277 4.55841 35.5166 4.5473 35.5166 4.44723V3.78014C35.5166 3.69676 35.5277 3.69121 35.6278 3.69121C35.6834 3.69121 35.9502 3.70788 36.7229 3.70788H37.3066C37.3455 3.27984 37.3511 2.80176 37.3622 2.31257H36.823C36.684 2.55716 36.5394 2.80732 36.3838 3.03524C36.3115 3.15198 36.267 3.20757 36.2115 3.20757C36.1559 3.20757 36.1003 3.16309 36.0002 3.06859C35.8168 2.89626 35.6333 2.81288 35.4777 2.74061C35.978 2.15691 36.3282 1.47871 36.5561 0.711568C36.6173 0.511443 36.6395 0.344671 36.6562 0.127869C36.9564 0.172341 37.2343 0.239048 37.5067 0.322434C37.6068 0.350229 37.6624 0.383585 37.6624 0.450293C37.6624 0.505883 37.6346 0.539237 37.579 0.605945C37.5234 0.667094 37.4511 0.733803 37.3844 0.945046C37.3288 1.11738 37.2677 1.30082 37.1898 1.48427H38.2683C39.0632 1.48427 39.3301 1.46759 39.3801 1.46759C39.4802 1.46759 39.4913 1.47871 39.4913 1.56765V2.23474C39.4913 2.32368 39.4802 2.3348 39.3801 2.3348C39.3245 2.3348 39.0577 2.31813 38.2683 2.31813C38.2572 2.79064 38.2516 3.2576 38.2127 3.71344H38.4295C39.2133 3.71344 39.4802 3.69676 39.5358 3.69676C39.6247 3.69676 39.6358 3.70788 39.6358 3.78571V4.45279C39.6358 4.55285 39.6247 4.56397 39.5358 4.56397C39.4802 4.56397 39.2189 4.54729 38.4295 4.54729H38.1182L38.1349 4.54174ZM40.0416 8.13843C39.9527 8.13843 39.9416 8.1273 39.9416 8.03836C39.9416 7.97165 39.9582 7.48246 39.9582 5.2922V3.1631C39.9582 1.63993 39.9416 1.12849 39.9416 1.06179C39.9416 0.9784 39.9527 0.972839 40.0416 0.972839C40.1028 0.972839 40.3418 0.989519 41.0367 0.989519H42.3153C43.0157 0.989519 43.2547 0.972839 43.3103 0.972839C43.4104 0.972839 43.4215 0.983959 43.4215 1.06179C43.4215 1.11738 43.4048 1.62881 43.4048 2.8907V5.24773C43.4048 7.39352 43.4215 7.88827 43.4215 7.94386C43.4215 8.0328 43.4104 8.04392 43.3103 8.04392H42.5599C42.4709 8.04392 42.4598 8.0328 42.4598 7.94386V7.39351H40.8866V8.04392C40.8866 8.13287 40.8755 8.14398 40.7865 8.14398H40.0361L40.0416 8.13843ZM40.8922 6.50407H42.4654V1.86229H40.8922V6.50407Z" fill="black"/>
<path d="M50.4092 3.91912C50.9207 3.6245 51.3487 3.50776 51.8601 3.50776C53.1943 3.50776 54.1227 4.38609 54.1227 5.69802C54.1227 7.22119 52.8886 8.19958 50.9373 8.19958C49.7866 8.19958 49.0917 7.70482 49.0917 6.85985C49.0917 6.24836 49.6643 5.74805 50.3814 5.74805C51.2375 5.74805 51.8713 6.20388 52.0992 7.08221C52.7385 6.78758 53.0331 6.38733 53.0331 5.69245C53.0331 4.86416 52.4494 4.31382 51.5989 4.31382C50.8428 4.31382 50.0034 4.65292 49.2585 5.28109C48.9917 5.52013 48.736 5.7814 48.4636 6.05935C48.4024 6.1205 48.3524 6.15942 48.3079 6.15942C48.269 6.15942 48.2245 6.13162 48.1689 6.07603C47.9744 5.90926 47.7743 5.67578 47.6297 5.48122C47.5741 5.40895 47.6019 5.34224 47.6742 5.26997C48.3857 4.69739 49.0139 4.10813 49.8367 3.25204C50.4037 2.66834 50.8317 2.21251 51.2542 1.68996C50.7039 1.79002 50.059 1.91788 49.492 2.03462C49.3753 2.06241 49.253 2.09021 49.1084 2.1458C49.0639 2.16247 48.9694 2.19027 48.925 2.19027C48.836 2.19027 48.7693 2.1458 48.7248 2.03462C48.6137 1.82338 48.5303 1.56766 48.4024 1.05067C48.6748 1.08958 48.9806 1.08959 49.253 1.06735C49.8089 1.01176 50.6149 0.895017 51.3265 0.756041C51.5544 0.711569 51.7378 0.667097 51.8268 0.617066C51.8713 0.58927 51.9546 0.5448 51.9991 0.5448C52.0881 0.5448 52.1436 0.572593 52.2104 0.617066C52.4827 0.828309 52.6662 1.01176 52.8218 1.20076C52.8941 1.28415 52.9219 1.3453 52.9219 1.41757C52.9219 1.50651 52.8663 1.5899 52.7663 1.63437C52.6106 1.70664 52.5383 1.77334 52.366 1.929C51.6989 2.5794 51.0874 3.21869 50.3926 3.88577L50.4037 3.91357L50.4092 3.91912ZM50.4204 6.52075C50.1535 6.52075 49.9812 6.6764 49.9812 6.86541C49.9812 7.14892 50.2258 7.33793 50.7761 7.33793C50.9429 7.33793 51.0596 7.32681 51.1986 7.29901C51.0819 6.7987 50.8039 6.5152 50.4204 6.5152V6.52075Z" fill="black"/>
<path d="M64.6849 2.58495C65.1296 2.58495 65.6466 2.57383 66.0635 2.55716C66.1747 2.54604 66.1802 2.60163 66.1913 2.70169C66.208 2.92961 66.208 3.19644 66.1913 3.42436C66.1802 3.5411 66.1636 3.58002 66.0357 3.5689C65.7244 3.5689 65.1685 3.55778 64.7182 3.55778H64.3458C64.2902 4.86415 64.09 5.63129 63.6453 6.37064C63.1895 7.12667 62.4501 7.67701 61.4884 8.0717C61.3606 8.12729 61.2883 8.15509 61.2327 8.15509C61.1771 8.15509 61.1326 8.1273 61.0604 8.05503C60.788 7.77152 60.6156 7.64367 60.3043 7.50469C61.5996 7.10444 62.3056 6.63748 62.7725 5.88701C63.1283 5.30331 63.2729 4.67514 63.3118 3.55778H61.3661V3.88576C61.3661 4.42498 61.3661 4.91974 61.3939 5.40338C61.405 5.50344 61.3383 5.52012 61.2383 5.53123C60.9992 5.54791 60.699 5.54791 60.4544 5.53123C60.3377 5.52012 60.2821 5.50344 60.2877 5.40338C60.3155 4.93086 60.3321 4.48058 60.3321 3.908V3.56333H60.0597C59.565 3.56333 58.8368 3.59113 58.5532 3.60781C58.481 3.60781 58.4532 3.55222 58.4421 3.43548C58.4032 3.24647 58.3976 2.92405 58.3809 2.5516C58.7645 2.57939 59.3593 2.59607 60.0597 2.59607H60.3321V1.92898C60.3321 1.34529 60.3155 1.11737 60.221 0.589261C60.6935 0.633733 61.1438 0.678202 61.3328 0.733792C61.4328 0.750469 61.4717 0.800503 61.4717 0.861652C61.4717 0.917242 61.4439 0.97839 61.4161 1.05622C61.3494 1.22299 61.3494 1.31193 61.3494 1.93454V2.60163H63.3118L63.3229 1.70662C63.334 1.19519 63.3062 0.772705 63.2395 0.455841C63.5842 0.494754 64.09 0.544789 64.3068 0.611497C64.4347 0.639292 64.4736 0.683762 64.4736 0.756029C64.4736 0.794942 64.4625 0.844975 64.4347 0.922801C64.3735 1.09513 64.3624 1.33417 64.3624 1.72886V2.59607H64.6793L64.6849 2.58495Z" fill="black"/>
<path d="M74.6689 6.0371C74.6689 6.66527 74.68 7.2045 74.6966 7.93829C74.7078 8.05503 74.6633 8.09394 74.5577 8.09394C74.263 8.11062 73.9351 8.11062 73.646 8.09394C73.5459 8.09394 73.507 8.05502 73.5181 7.9494C73.5292 7.29343 73.557 6.69862 73.557 6.07601V3.9469C72.751 4.6251 71.7782 5.31443 71.0444 5.698C70.9999 5.7258 70.9554 5.73691 70.9054 5.73691C70.8331 5.73691 70.7775 5.70911 70.7108 5.64796C70.4996 5.43672 70.1994 5.25328 69.927 5.10875C71.1889 4.45834 71.9616 3.93023 72.801 3.23535C73.5237 2.64053 74.1797 2.00124 74.7467 1.3286C75.058 0.961706 75.1747 0.778261 75.3248 0.38913C75.7362 0.61705 76.1364 0.861648 76.3366 1.02842C76.3922 1.06733 76.4088 1.11736 76.4088 1.16739C76.4088 1.23966 76.3532 1.32304 76.281 1.36752C76.1253 1.46758 75.9808 1.60655 75.7306 1.86783C75.3748 2.29587 75.0357 2.65165 74.6633 3.01855V6.04266L74.6689 6.0371Z" fill="black"/>
<path d="M84.6528 3.05191C85.7646 3.39657 86.6541 3.75235 87.5546 4.29158C87.6547 4.34717 87.6992 4.40832 87.6547 4.53061C87.538 4.8308 87.3879 5.11432 87.26 5.32556C87.2211 5.38671 87.1877 5.42562 87.1433 5.42562C87.1155 5.42562 87.0765 5.4145 87.0432 5.38114C86.2038 4.84192 85.381 4.44167 84.6417 4.21375V6.23167C84.6417 6.82649 84.6584 7.36572 84.6806 8.02168C84.6917 8.13286 84.6417 8.16066 84.5138 8.16066C84.247 8.17733 83.9635 8.17733 83.7022 8.16066C83.5744 8.16066 83.5299 8.13286 83.5299 8.02168C83.5577 7.34348 83.5688 6.80982 83.5688 6.22056V1.72886C83.5688 1.0451 83.541 0.744917 83.4799 0.378021C83.9023 0.405816 84.3582 0.45029 84.6195 0.522557C84.7473 0.550352 84.7918 0.605942 84.7918 0.678209C84.7918 0.733799 84.764 0.806069 84.7195 0.889455C84.6584 1.00619 84.6584 1.23411 84.6584 1.74554V3.05191H84.6528Z" fill="black"/>
</svg>
